<?xml version="1.0" encoding="UTF-8"?>
<svg id="Capa_2" data-name="Capa 2" xmlns="http://www.w3.org/2000/svg" viewBox="0 0 127.48 141.77">
  <defs>
    <style>
      .cls-1 {
        stroke-width: 0px;
      }
    </style>
  </defs>
  <g id="Layer_1" data-name="Layer 1">
    <g>
      <path class="cls-1" d="m63.61,123.67c-2.44-1.4-4.88-2.79-7.32-4.19-6.62-3.82-13.24-7.64-19.86-11.46-.22-.12-.43-.25-.65-.39V34.12c1.96-1.14,3.93-2.29,5.92-3.44,7.09-4.09,14.18-8.18,21.28-12.27.19-.11.4-.2.61-.3.05.26.15.51.15.77.01,4.12,0,8.23,0,12.35-2.05,1.2-4.11,2.39-6.16,3.59-3.3,1.91-6.59,3.81-9.89,5.72-.14.08-.26.18-.4.28v60.17c5.46,3.15,10.96,6.32,16.45,9.49,0,4.18,0,8.37,0,12.55,0,.21-.08.43-.12.64Z"/>
      <path class="cls-1" d="m127.48,47.13c-21.28-12.29-42.45-24.51-63.67-36.77C42.62,22.6,21.42,34.84.12,47.14c-.04-.68-.1-1.22-.11-1.76-.01-2.59,0-5.19-.02-7.78,0-.54.17-.88.65-1.15,4.59-2.62,9.16-5.25,13.74-7.89,4.2-2.43,8.4-4.87,12.6-7.3,6.53-3.78,13.07-7.54,19.6-11.32,3.61-2.08,7.2-4.19,10.81-6.27,2.1-1.21,4.21-2.41,6.41-3.67,21.19,12.24,42.42,24.5,63.67,36.76v10.36Z"/>
      <path class="cls-1" d="m.1,104.98v-10.28c.19.08.35.12.5.2,4.71,2.72,9.42,5.44,14.13,8.16,3.12,1.8,6.26,3.57,9.38,5.38,4.41,2.55,8.82,5.12,13.23,7.68,5.55,3.22,11.11,6.43,16.67,9.64,3.08,1.78,6.16,3.53,9.23,5.32.44.25.76.23,1.19-.02,4.85-2.83,9.71-5.65,14.58-8.46,4.1-2.37,8.21-4.71,12.32-7.07,6.55-3.78,13.09-7.57,19.64-11.35,5.24-3.02,10.48-6.04,15.72-9.06.24-.14.49-.28.81-.46v10.34c-21.19,12.24-42.41,24.49-63.68,36.77C42.6,129.52,21.4,117.28.1,104.98Z"/>
      <path class="cls-1" d="m11.6,61.38v32.33c-3.87-2.23-7.65-4.41-11.49-6.63-.03-.27-.08-.55-.08-.84,0-10.26,0-20.52-.01-30.79,0-.49.15-.78.58-1.03,9.2-5.3,18.39-10.61,27.59-15.92.39-.22.78-.45,1.23-.7v66.21c-3.84-2.22-7.63-4.4-11.47-6.62v-39.67c-2.2,1.27-4.27,2.46-6.35,3.66Z"/>
      <path class="cls-1" d="m127.48,76.79c-5.95,3.43-11.9,6.86-17.84,10.29v10.29c-3.8,2.2-7.6,4.39-11.46,6.62V37.8c9.83,5.68,19.58,11.31,29.3,16.92v22.07Zm-11.51-6.66v-8.78c-2.06-1.18-4.12-2.37-6.25-3.59v16c2.15-1.25,4.21-2.44,6.25-3.63Z"/>
      <path class="cls-1" d="m63.61,123.67c.04-.21.12-.43.12-.64,0-4.18,0-8.37,0-12.55,1.19-.65,2.4-1.28,3.57-1.96,4.19-2.41,8.37-4.83,12.55-7.25.13-.08.26-.17.4-.26v-22.68c-.82.46-1.55.87-2.28,1.29-4.56,2.63-9.12,5.26-13.68,7.89-.17.1-.37.15-.56.22,0-4.41,0-8.81,0-13.22,1.85-1.05,3.71-2.09,5.56-3.15,4.11-2.36,8.21-4.74,12.33-7.12,3.4,1.96,6.8,3.92,10.19,5.89v37.49c-1.71.99-3.46,1.99-5.2,3-5.66,3.27-11.31,6.54-16.97,9.81-1.79,1.03-3.58,2.06-5.37,3.08-.19.11-.44.11-.66.15Z"/>
      <path class="cls-1" d="m63.74,31.23c0-4.12,0-8.23,0-12.35,0-.26-.09-.51-.15-.77.22.03.47,0,.64.11,6.23,3.58,12.46,7.17,18.68,10.76,2.97,1.71,5.93,3.43,8.91,5.15v13.25c-1.12-.65-2.2-1.26-3.27-1.88-7.8-4.5-15.59-9-23.39-13.5-.47-.27-.95-.52-1.42-.79Z"/>
      <path class="cls-1" d="m63.74,74.52c0,4.41,0,8.81,0,13.22-3.38-1.93-6.75-3.86-10.15-5.8v-13.31c3.41,1.98,6.78,3.94,10.16,5.89Z"/>
    </g>
  </g>
</svg>