<?xml version="1.0" encoding="UTF-8"?>
<svg id="Capa_2" data-name="Capa 2" xmlns="http://www.w3.org/2000/svg" viewBox="0 0 127.48 152.5">
  <defs>
    <style>
      .cls-1 {
        fill: #fff;
        stroke-width: 0px;
      }
    </style>
  </defs>
  <g id="Layer_1" data-name="Layer 1">
    <g>
      <g>
        <path class="cls-1" d="m63.61,123.67c-2.44-1.4-4.88-2.79-7.32-4.19-6.62-3.82-13.24-7.64-19.86-11.46-.22-.12-.43-.25-.65-.39V34.12c1.96-1.14,3.93-2.29,5.92-3.44,7.09-4.09,14.18-8.18,21.28-12.27.19-.11.4-.2.61-.3.05.26.15.51.15.77.01,4.12,0,8.23,0,12.35-2.05,1.2-4.11,2.39-6.16,3.59-3.3,1.91-6.59,3.81-9.89,5.72-.14.08-.26.18-.4.28v60.17c5.46,3.15,10.96,6.32,16.45,9.49,0,4.18,0,8.37,0,12.55,0,.21-.08.43-.12.64Z"/>
        <path class="cls-1" d="m127.48,47.13c-21.28-12.29-42.45-24.51-63.67-36.77C42.62,22.6,21.42,34.84.12,47.14c-.04-.68-.1-1.22-.11-1.76-.01-2.59,0-5.19-.02-7.78,0-.54.17-.88.65-1.15,4.59-2.62,9.16-5.25,13.74-7.89,4.2-2.43,8.4-4.87,12.6-7.3,6.53-3.78,13.07-7.54,19.6-11.32,3.61-2.08,7.2-4.19,10.81-6.27,2.1-1.21,4.21-2.41,6.41-3.67,21.19,12.24,42.42,24.5,63.67,36.76v10.36Z"/>
        <path class="cls-1" d="m.1,104.98v-10.28c.19.08.35.12.5.2,4.71,2.72,9.42,5.44,14.13,8.16,3.12,1.8,6.26,3.57,9.38,5.38,4.41,2.55,8.82,5.12,13.23,7.68,5.55,3.22,11.11,6.43,16.67,9.64,3.08,1.78,6.16,3.53,9.23,5.32.44.25.76.23,1.19-.02,4.85-2.83,9.71-5.65,14.58-8.46,4.1-2.37,8.21-4.71,12.32-7.07,6.55-3.78,13.09-7.57,19.64-11.35,5.24-3.02,10.48-6.04,15.72-9.06.24-.14.49-.28.81-.46v10.34c-21.19,12.24-42.41,24.49-63.68,36.77C42.6,129.52,21.4,117.28.1,104.98Z"/>
        <path class="cls-1" d="m11.6,61.38v32.33c-3.87-2.23-7.65-4.41-11.49-6.63-.03-.27-.08-.55-.08-.84,0-10.26,0-20.52-.01-30.79,0-.49.15-.78.58-1.03,9.2-5.3,18.39-10.61,27.59-15.92.39-.22.78-.45,1.23-.7v66.21c-3.84-2.22-7.63-4.4-11.47-6.62v-39.67c-2.2,1.27-4.27,2.46-6.35,3.66Z"/>
        <path class="cls-1" d="m127.48,76.79c-5.95,3.43-11.9,6.86-17.84,10.29v10.29c-3.8,2.2-7.6,4.39-11.46,6.62V37.8c9.83,5.68,19.58,11.31,29.3,16.92v22.07Zm-11.51-6.66v-8.78c-2.06-1.18-4.12-2.37-6.25-3.59v16c2.15-1.25,4.21-2.44,6.25-3.63Z"/>
        <path class="cls-1" d="m63.61,123.67c.04-.21.12-.43.12-.64,0-4.18,0-8.37,0-12.55,1.19-.65,2.4-1.28,3.57-1.96,4.19-2.41,8.37-4.83,12.55-7.25.13-.08.26-.17.4-.26v-22.68c-.82.46-1.55.87-2.28,1.29-4.56,2.63-9.12,5.26-13.68,7.89-.17.1-.37.15-.56.22,0-4.41,0-8.81,0-13.22,1.85-1.05,3.71-2.09,5.56-3.15,4.11-2.36,8.21-4.74,12.33-7.12,3.4,1.96,6.8,3.92,10.19,5.89v37.49c-1.71.99-3.46,1.99-5.2,3-5.66,3.27-11.31,6.54-16.97,9.81-1.79,1.03-3.58,2.06-5.37,3.08-.19.11-.44.11-.66.15Z"/>
        <path class="cls-1" d="m63.74,31.23c0-4.12,0-8.23,0-12.35,0-.26-.09-.51-.15-.77.22.03.47,0,.64.11,6.23,3.58,12.46,7.17,18.68,10.76,2.97,1.71,5.93,3.43,8.91,5.15v13.25c-1.12-.65-2.2-1.26-3.27-1.88-7.8-4.5-15.59-9-23.39-13.5-.47-.27-.95-.52-1.42-.79Z"/>
        <path class="cls-1" d="m63.74,74.52c0,4.41,0,8.81,0,13.22-3.38-1.93-6.75-3.86-10.15-5.8v-13.31c3.41,1.98,6.78,3.94,10.16,5.89Z"/>
      </g>
      <g>
        <path class="cls-1" d="m6.39,151.97c.06.04.14.08.2.12.07.04.13.09.3.22h-3.26c.25-.18.38-.27.54-.38v-7.56c-.11-.09-.26-.2-.5-.39h4.05c-.25.15-.38.22-.63.36,1.29,1.43,2.53,2.81,3.78,4.2.05-.02.11-.04.16-.06-.14-1.49.23-3-.23-4.52h2.92c-.25.17-.38.26-.52.35v7.62c.12.09.27.2.51.38h-3.2c.17-.15.27-.24.43-.38-1.49-1.63-2.99-3.26-4.56-4.98v5.01Z"/>
        <path class="cls-1" d="m52.61,144.58c-.32.66-.66,1.34-1,2.04-.2-.21-.32-.46-.51-.53-1.29-.5-2.63-.75-3.97-.24-.95.36-1.47,1.14-1.49,2.16-.02.97.45,1.7,1.31,2.14,1.28.65,2.59.46,3.94.12v-1.06c-.79.1-1.61-.2-2.41.26v-2.1c.79.4,1.64.15,2.47.19.86.04,1.72,0,2.52,0v3.67c-1.77.9-3.79,1.29-5.9,1.01-.87-.11-1.79-.4-2.54-.85-1.51-.9-2-2.38-1.73-4.06.29-1.81,1.52-2.83,3.21-3.32,1.74-.51,3.45-.31,5.14.32.28.1.57.14.97.24Z"/>
        <path class="cls-1" d="m28.59,149.74c.54-1.42,1.01-2.69,1.5-3.97-.19-.14-.32-.24-.54-.41h3.38c-.19.13-.31.21-.53.36.47,1.28.95,2.58,1.49,4.05.46-1.45.86-2.72,1.27-4.01-.2-.14-.34-.24-.58-.4h2.59c-.73,2.16-1.46,4.35-2.2,6.55.18.13.32.22.58.4h-3.54c.2-.16.34-.26.52-.41-.45-1.23-.9-2.48-1.41-3.89-.51,1.39-.96,2.62-1.42,3.89.16.13.3.24.53.42h-3.46c.18-.16.3-.27.48-.44-.71-2.16-1.43-4.35-2.16-6.55h2.85c-.24.16-.37.25-.58.39.39,1.28.79,2.56,1.24,4.01Z"/>
        <path class="cls-1" d="m83.47,149.27v2.64c.12.09.26.21.49.39h-3.38c.17-.15.29-.26.45-.4v-7.54c-.11-.09-.26-.21-.41-.32.03-.04.06-.1.09-.1,2.09.01,4.18-.04,6.27.07,1.48.08,2.44,1.25,2.41,2.63-.03,1.42-1.04,2.46-2.56,2.57-.81.06-1.64.04-2.45.05-.29,0-.58,0-.91,0Zm3.53-3.25c-1.15-.49-2.34-.13-3.53-.27v1.82c.87,0,1.7.02,2.54,0,.99-.04,1.25-.42.99-1.54Z"/>
        <path class="cls-1" d="m64.78,145.31h3.89c-.11.15-.2.27-.35.49.91.99,1.84,1.99,2.86,3.09v-3.17c-.11-.08-.26-.19-.5-.36h2.9c-.15.13-.28.24-.41.35v6.25c.13.08.26.16.56.34h-3.15c.19-.13.32-.23.57-.41-1.27-1.36-2.54-2.71-3.81-4.07-.34.89-.16,4.05.36,4.52-.55,0-.98,0-1.41,0s-.91,0-1.34,0c.11-.28.29-.52.29-.76.02-1.96.01-3.91.01-5.86-.14-.12-.27-.23-.48-.41Z"/>
        <path class="cls-1" d="m18.31,146.75v1.23c1.15-.08,2.29.2,3.44-.19,0,.57,0,1.23,0,1.89-1.07-.67-2.24-.13-3.41-.36v1.62c1.43,0,2.86.02,4.29-.01.25,0,.5-.21.78-.33v1.91c-.38-.05-.77-.14-1.16-.14-2.17-.01-4.35,0-6.7,0,.28-.2.41-.29.55-.39v-6.29c-.14-.08-.27-.15-.48-.27.2-.04.32-.09.44-.09,2.16,0,4.32,0,6.48-.02.28,0,.56-.12.87-.2v1.88c-.36-.07-.76-.19-1.15-.2-1.29-.03-2.59,0-3.95,0Z"/>
        <path class="cls-1" d="m54.98,152.35c.31-.21.44-.29.59-.39v-6.26c-.12-.09-.26-.18-.46-.32.17-.04.29-.09.41-.09,2.14,0,4.27,0,6.41,0,.3,0,.6-.11.94-.18v1.87c-.3-.08-.59-.22-.88-.22-1.38-.02-2.77-.01-4.19-.01v1.25c1.14-.08,2.28.14,3.43-.15v1.95c-.16-.17-.27-.28-.4-.41h-3.02v1.57c1.41,0,2.82.02,4.23-.01.27,0,.54-.21.85-.33v1.91c-.36-.05-.74-.14-1.11-.14-1.98-.01-3.96,0-5.93,0-.22,0-.43,0-.85,0Z"/>
        <path class="cls-1" d="m119.68,152.43c-1.4-.04-2.68-.37-3.59-1.5-1.39-1.72-.71-4.32,1.35-5.25,1.38-.62,2.81-.64,4.23-.1,1.59.6,2.41,1.94,2.28,3.62-.11,1.43-1.19,2.64-2.73,3-.5.12-1.03.16-1.54.23Zm-.02-1.72c1.26,0,2.17-.75,2.2-1.83.03-1.08-.94-1.96-2.17-1.97-1.25-.01-2.17.81-2.17,1.94,0,1.1.87,1.86,2.14,1.87Z"/>
        <path class="cls-1" d="m96.66,145.32c.05.31.04.55.13.75.88,1.91,1.78,3.81,2.68,5.71.08.17.22.32.37.52h-2.46c-.11-.43-.22-.86-.34-1.3h-3.82c-.13.4-.27.84-.44,1.33h-2.06c.52-1.16,1.06-2.3,1.55-3.46.49-1.15,1.17-2.24,1.4-3.54h2.98Zm-1.59,1.7c-.44.95-.85,1.82-1.26,2.7h2.56c-.43-.9-.84-1.75-1.3-2.7Z"/>
        <path class="cls-1" d="m106.12,146.92c0,1.67-.01,3.19.01,4.71,0,.23.2.45.32.69h-2.69c.08-.38.21-.74.21-1.11.03-1.38.01-2.77.01-4.24-.93.11-1.86-.29-2.75.28v-2.18c.31.08.58.21.85.21,1.95.02,3.91.02,5.86,0,.29,0,.59-.13.92-.21v2c-.89-.05-1.77-.11-2.75-.17Z"/>
        <path class="cls-1" d="m113.83,145.37c-.27.15-.42.24-.58.33v6.25c.15.09.31.18.61.37h-3.36c.21-.14.36-.24.54-.37v-6.23c-.13-.08-.29-.18-.56-.35h3.34Z"/>
      </g>
    </g>
  </g>
</svg>